<?xml version="1.0" encoding="UTF-8"?>
<svg width="20px" height="20px" viewBox="0 0 20 20" version="1.1" xmlns="http://www.w3.org/2000/svg" xmlns:xlink="http://www.w3.org/1999/xlink">
    <!-- Generator: Sketch 49.3 (51167) - http://www.bohemiancoding.com/sketch -->
    <title>Artboard</title>
    <desc>Created with Sketch.</desc>
    <defs></defs>
    <g id="Artboard" stroke="none" stroke-width="1" fill="none" fill-rule="evenodd">
        <path d="M16.9991283,2 C17.5518945,2 18,2.44463086 18,3.00087166 L18,16.9991283 C18,17.5518945 17.5553691,18 16.9991283,18 L3.00087166,18 C2.4481055,18 2,17.5553691 2,16.9991283 L2,3.00087166 C2,2.4481055 2.44463086,2 3.00087166,2 L6,2 L6,4 L8,4 L8,2 L12,2 L12,4 L14,4 L14,2 L16.9991283,2 Z M4,6 L4,16 L16,16 L16,6 L4,6 Z M6,9 L8,9 L8,11 L6,11 L6,9 Z M6,12 L8,12 L8,14 L6,14 L6,12 L6,12 Z M9,9 L11,9 L11,11 L9,11 L9,9 L9,9 Z M9,12 L11,12 L11,14 L9,14 L9,12 L9,12 Z M12,9 L14,9 L14,11 L12,11 L12,9 L12,9 Z M12,12 L14,12 L14,14 L12,14 L12,12 L12,12 Z" id="calendar-copy-2" fill="#A1B2C1"></path>
    </g>
</svg>
