<?xml version="1.0" encoding="UTF-8"?>
<svg width="20px" height="20px" viewBox="0 0 20 20" version="1.1" xmlns="http://www.w3.org/2000/svg" xmlns:xlink="http://www.w3.org/1999/xlink">
    <!-- Generator: Sketch 43.2 (39069) - http://www.bohemiancoding.com/sketch -->
    <title>Artboard</title>
    <desc>Created with Sketch.</desc>
    <defs></defs>
    <g id="Page-1" stroke="none" stroke-width="1" fill="none" fill-rule="evenodd">
        <g id="Artboard" fill-rule="nonzero" fill="#6B7384">
            <path d="M10,11.4142136 L13.2928932,14.7071068 C13.6834175,15.0976311 14.3165825,15.0976311 14.7071068,14.7071068 C15.0976311,14.3165825 15.0976311,13.6834175 14.7071068,13.2928932 L11.4142136,10 L14.7071068,6.70710678 C15.0976311,6.31658249 15.0976311,5.68341751 14.7071068,5.29289322 C14.3165825,4.90236893 13.6834175,4.90236893 13.2928932,5.29289322 L10,8.58578644 L6.70710678,5.29289322 C6.31658249,4.90236893 5.68341751,4.90236893 5.29289322,5.29289322 C4.90236893,5.68341751 4.90236893,6.31658249 5.29289322,6.70710678 L8.58578644,10 L5.29289322,13.2928932 C4.90236893,13.6834175 4.90236893,14.3165825 5.29289322,14.7071068 C5.68341751,15.0976311 6.31658249,15.0976311 6.70710678,14.7071068 L10,11.4142136 Z" id="Combined-Shape"></path>
        </g>
    </g>
</svg>
