<?xml version="1.0" encoding="UTF-8"?>
<svg width="128px" height="128px" viewBox="0 0 128 128" version="1.1" xmlns="http://www.w3.org/2000/svg" xmlns:xlink="http://www.w3.org/1999/xlink">
    <!-- Generator: Sketch 51.3 (57544) - http://www.bohemiancoding.com/sketch -->
    <title>Mobile</title>
    <desc>Created with Sketch.</desc>
    <defs>
        <linearGradient x1="50%" y1="0%" x2="50%" y2="100%" id="linearGradient-1">
            <stop stop-color="#00CCC4" offset="0%"></stop>
            <stop stop-color="#05C0B8" offset="100%"></stop>
        </linearGradient>
    </defs>
    <g id="Mobile" stroke="none" stroke-width="1" fill="none" fill-rule="evenodd">
        <g id="Group" transform="translate(20.000000, 10.000000)">
            <path d="M0,37.6010573 L41.139092,8.89936523 C42.8578789,7.70021159 45.1421211,7.70021159 46.860908,8.89936523 L88,37.6010573 L88,80.1227063 C88,82.8841301 85.7614237,85.1227063 83,85.1227063 L5,85.1227063 C2.23857625,85.1227063 2.77555756e-16,82.8841301 0,80.1227063 L0,37.6010573 Z" id="Rectangle-10" stroke="#C4CED8" stroke-width="2" stroke-linecap="round" stroke-linejoin="round"></path>
            <path d="M2.5547002,83.9547566 C2.09517151,84.2611091 1.47430216,84.1369352 1.16794971,83.6774065 C0.861597247,83.2178778 0.985771115,82.5970085 1.4452998,82.290656 L42,55 C43.6794971,53.8803353 44.3205029,53.8803353 46,55 L86.5547002,82.290656 C87.0142289,82.5970085 87.1384028,83.2178778 86.8320503,83.6774065 C86.5256978,84.1369352 85.9048285,84.2611091 85.4452998,83.9547566 L45.6641006,57.4339572 C44.6564024,56.7621583 43.3435976,56.7621583 42.3358994,57.4339572 L2.5547002,83.9547566 Z" id="Path-6" fill="#C4CED8"></path>
            <path d="M0.467828455,38.9693429 C0.000244000003,38.6754327 -0.140546778,38.0581192 0.153363451,37.5905348 C0.44727368,37.1229503 1.53241555,36.7060898 2,37 L36,59 L38,60 L35.4678285,60.9693429 L0.467828455,38.9693429 Z" id="Path-7" fill="#C4CED8"></path>
            <path d="M51.4678285,59.2760698 C51.000244,59.56998 50.8594532,60.1872934 51.1533635,60.6548779 C51.4472737,61.1224623 52.0645871,61.2632531 52.5321715,60.9693429 L87.5321715,38.9693429 C87.999756,38.6754327 88.1405468,38.0581192 87.8466365,37.5905348 C87.5527263,37.1229503 86.4675845,36.7060898 86,37 L51.4678285,59.2760698 Z" id="Path-7" fill="#C4CED8"></path>
            <path d="M21,27.1227063 L67,27.1227063 C68.1045695,27.1227063 69,28.0181368 69,29.1227063 L69,48 L52,59 L45.0599979,54.6624987 C44.4114573,54.2571608 43.5885427,54.2571608 42.9400021,54.6624987 L36,59 L19,48 L19,29.1227063 C19,28.0181368 19.8954305,27.1227063 21,27.1227063 Z" id="Rectangle-11" fill="url(#linearGradient-1)" fill-rule="nonzero"></path>
            <circle id="Oval" fill="#FFFFFF" fill-rule="nonzero" cx="44" cy="43" r="10"></circle>
            <path d="M47.8254413,38.3411059 C48.1893459,37.9256641 48.821131,37.883885 49.2365727,38.2477896 C49.6520145,38.6116942 49.6937936,39.2434793 49.329889,39.6589211 L42.2688721,47.719938 C41.8878574,48.154913 41.2184273,48.1770231 40.8095414,47.7681372 L38.2928932,45.251489 C37.9023689,44.8609647 37.9023689,44.2277997 38.2928932,43.8372754 C38.6834175,43.4467512 39.3165825,43.4467512 39.7071068,43.8372754 L41.4683438,45.5985124 L47.8254413,38.3411059 Z" id="Path-3" fill="url(#linearGradient-1)" fill-rule="nonzero"></path>
            <path d="M76,22 L73,19" id="Path-5" stroke="#C4CED8" stroke-width="2" stroke-linecap="round" stroke-linejoin="round" transform="translate(74.500000, 20.500000) scale(-1, 1) translate(-74.500000, -20.500000) "></path>
            <path d="M80,15.670832 L79.329168,15" id="Path-5-Copy" stroke="#C4CED8" stroke-width="2" stroke-linecap="round" stroke-linejoin="round" transform="translate(79.664584, 15.335416) scale(-1, 1) translate(-79.664584, -15.335416) "></path>
            <path d="M15,22 L12,19" id="Path-5" stroke="#C4CED8" stroke-width="2" stroke-linecap="round" stroke-linejoin="round"></path>
            <path d="M8.67083203,15.670832 L8,15" id="Path-5-Copy" stroke="#C4CED8" stroke-width="2" stroke-linecap="round" stroke-linejoin="round"></path>
            <path d="M44,4.07106781 L44,0" id="Path-8" stroke="#C4CED8" stroke-width="2" stroke-linecap="round" stroke-linejoin="round"></path>
            <path d="M43,104.585786 L43,91 C43,90.4477153 43.4477153,90 44,90 C44.5522847,90 45,90.4477153 45,91 L45,104.585786 L49.2928932,100.292893 C49.6834175,99.9023689 50.3165825,99.9023689 50.7071068,100.292893 C51.0976311,100.683418 51.0976311,101.316582 50.7071068,101.707107 L44.7071068,107.707107 C44.6960741,107.71814 44.685412,107.728296 44.6750998,107.737609 C44.2827791,108.09735 43.672939,108.087153 43.2928932,107.707107 L37.2928932,101.707107 C36.9023689,101.316582 36.9023689,100.683418 37.2928932,100.292893 C37.6834175,99.9023689 38.3165825,99.9023689 38.7071068,100.292893 L43,104.585786 Z" id="Combined-Shape" fill="#C4CED8" transform="translate(44.000000, 99.000000) scale(1, -1) translate(-44.000000, -99.000000) "></path>
        </g>
    </g>
</svg>