<?xml version="1.0" encoding="UTF-8"?>
<svg width="128px" height="128px" viewBox="0 0 128 128" version="1.1" xmlns="http://www.w3.org/2000/svg" xmlns:xlink="http://www.w3.org/1999/xlink">
    <!-- Generator: Sketch 49.3 (51167) - http://www.bohemiancoding.com/sketch -->
    <title>Artboard</title>
    <desc>Created with Sketch.</desc>
    <defs></defs>
    <g id="Artboard" stroke="none" stroke-width="1" fill="none" fill-rule="evenodd">
        <circle id="Oval" fill="#F9FAFB" cx="64" cy="64" r="64"></circle>
        <path d="M62,62 L62,41 C62,39.8954305 62.8954305,39 64,39 C65.1045695,39 66,39.8954305 66,41 L66,62 L87,62 C88.1045695,62 89,62.8954305 89,64 C89,65.1045695 88.1045695,66 87,66 L66,66 L66,87 C66,88.1045695 65.1045695,89 64,89 C62.8954305,89 62,88.1045695 62,87 L62,66 L41,66 C39.8954305,66 39,65.1045695 39,64 C39,62.8954305 39.8954305,62 41,62 L62,62 Z M64,106 C40.8040405,106 22,87.1959595 22,64 C22,40.8040405 40.8040405,22 64,22 C87.1959595,22 106,40.8040405 106,64 C106,87.1959595 87.1959595,106 64,106 Z M64,102 C84.9868205,102 102,84.9868205 102,64 C102,43.0131795 84.9868205,26 64,26 C43.0131795,26 26,43.0131795 26,64 C26,84.9868205 43.0131795,102 64,102 Z" id="Combined-Shape" fill="#A1B2C1" fill-rule="nonzero"></path>
    </g>
</svg>